<?xml version="1.0" encoding="UTF-8" standalone="no"?>
<svg
   xmlns:dc="http://purl.org/dc/elements/1.1/"
   xmlns:cc="http://creativecommons.org/ns#"
   xmlns:rdf="http://www.w3.org/1999/02/22-rdf-syntax-ns#"
   xmlns:svg="http://www.w3.org/2000/svg"
   xmlns="http://www.w3.org/2000/svg"
   version="1.1"
   id="svg5204"
   viewBox="0 0 70.866144 70.866144"
   height="20mm"
   width="20mm">
  <defs
     id="defs5206" />
  <metadata
     id="metadata5209">
    <rdf:RDF>
      <cc:Work
         rdf:about="">
        <dc:format>image/svg+xml</dc:format>
        <dc:type
           rdf:resource="http://purl.org/dc/dcmitype/StillImage" />
        <dc:title></dc:title>
      </cc:Work>
    </rdf:RDF>
  </metadata>
  <g
     transform="translate(0,-981.49605)"
     id="layer1">
    <g
       id="g9100"
       transform="translate(-528.27817,562.04002)">
      <g
         id="g7951">
        <g
           id="g147">
          <path
             id="path149"
             d="m 564,425.4 c 0,0 0,0 0,0 1.9,0 4.9,6.6 9.9,16.7 0.7,1.3 0.5,1 2.9,1.4 9.8,1.4 17.4,2.5 17.8,4.3 0.1,0.5 -0.2,1.2 -0.8,2.1 -1.4,2 -4.6,5.1 -8.5,8.8 -5.3,5.1 -4.6,3.3 -3.8,8.1 1.6,9.5 2.7,15.8 1.3,16.8 -0.2,0.1 -0.4,0.2 -0.7,0.2 -2.1,0 -6.6,-2.4 -13.4,-6 -5.8,-3.1 -3.7,-3.1 -9.4,0 -6.8,3.6 -11.3,6 -13.4,6 -0.3,0 -0.5,0 -0.7,-0.2 -1.4,-1 -0.3,-7.2 1.3,-16.8 0.8,-4.8 1.6,-2.9 -3.8,-8.1 -3.9,-3.8 -7,-6.8 -8.5,-8.8 -0.6,-0.9 -0.9,-1.6 -0.8,-2.1 0.4,-1.8 8,-2.9 17.8,-4.3 2.8,-0.4 2.4,-0.5 2.9,-1.4 5,-10.1 8,-16.7 9.9,-16.7 0,0 0,0 0,0 z"
             style="fill:#ffd140" />
          <path
             id="path151"
             d="m 579.3,474.6 c -21.2,-9.8 -9.6,-9.7 -30.6,0 2.6,-23.3 6.3,-12 -9.5,-29.1 22.9,-5 13,2.9 24.9,-18.2 11.8,21 1.9,13.2 24.9,18.2 -16.1,17.3 -12.3,5.8 -9.7,29.1 z"
             style="fill:#ffe094" />
          <path
             id="path153"
             d="m 593.8,449.9 c -1.2,-0.6 -3,-1.1 -5.6,-1.6 -3.2,-0.6 -7.5,-1.2 -13.1,-2 -5.8,-11.8 -8.4,-17.8 -11,-17.9 -2.6,-0.1 -5.2,5.8 -11.2,17.9 -5.5,0.8 -9.8,1.4 -13,2 -2.6,0.5 -4.4,0.9 -5.7,1.5 -0.7,-1 -0.9,-1.7 -0.8,-2.2 0.5,-1.6 6.6,-2.4 15,-3.6 1.4,-0.2 3,-0.4 4.6,-0.7 0.3,0 0.6,-0.2 0.8,-0.5 l 1.5,-3.1 c 4.2,-8.6 7,-14.2 8.7,-14.2 1.7,0 4.3,5.5 8,13.1 0.6,1.3 1.3,2.7 2.1,4.2 0.2,0.3 0.4,0.5 0.8,0.5 l 1.8,0.3 c 10.5,1.5 17.4,2.5 17.8,4.3 0.2,0.4 -0.1,1.1 -0.7,2 z"
             style="fill:#fff9c0" />
        </g>
        <path
           id="path1033"
           d="m 564,425.4 c 0,0 0,0 0,0 1.9,0 4.9,6.6 9.9,16.7 0.7,1.3 0.5,1 2.9,1.4 9.8,1.4 17.4,2.5 17.8,4.3 0.1,0.5 -0.2,1.2 -0.8,2.1 -1.4,2 -4.6,5.1 -8.5,8.8 -5.3,5.1 -4.6,3.3 -3.8,8.1 1.6,9.5 2.7,15.8 1.3,16.8 -0.2,0.1 -0.4,0.2 -0.7,0.2 -2.1,0 -6.6,-2.4 -13.4,-6 -5.8,-3.1 -3.7,-3.1 -9.4,0 -6.8,3.6 -11.3,6 -13.4,6 -0.3,0 -0.5,0 -0.7,-0.2 -1.4,-1 -0.3,-7.2 1.3,-16.8 0.8,-4.8 1.6,-2.9 -3.8,-8.1 -3.9,-3.8 -7,-6.8 -8.5,-8.8 -0.6,-0.9 -0.9,-1.6 -0.8,-2.1 0.4,-1.8 8,-2.9 17.8,-4.3 2.8,-0.4 2.4,-0.5 2.9,-1.4 5,-10.1 8,-16.7 9.9,-16.7 0,0 0,0 0,0 z"
           stroke-miterlimit="10"
           style="fill:none;stroke:#675252;stroke-width:2;stroke-linecap:round;stroke-linejoin:round;stroke-miterlimit:10" />
      </g>
    </g>
  </g>
</svg>
